<?xml version="1.0" encoding="UTF-8"?>
<svg id="Layer_2" xmlns="http://www.w3.org/2000/svg" version="1.1" viewBox="0 0 134.2 153">
  <!-- Generator: Adobe Illustrator 29.4.0, SVG Export Plug-In . SVG Version: 2.1.0 Build 152)  -->
  <defs>
    <style>
      .st0 {
        fill: #fff;
      }

      .st1 {
        fill: #27274d;
      }
    </style>
  </defs>
  <g id="Layer_2-2">
    <g>
      <path class="st0" d="M134.7-2.2v153H.5V-2.2h134.2ZM85.5.8c-24.3-5.2-51,1.3-69.4,18.3-4.5,4.2-10.5,8.7-1.6,11.7v1C2,50.7-1.9,73.7,6.1,95.5c1.9,5.1,5.1,9.4,7,14.5l-8.8,6.7c28.6,42.8,91.7,43.9,124.5,5.3.4-1.8-7.3-4.3-7.4-7.4,0-1.5,4.7-8,5.6-10.1,7.3-15.6,9.7-34.2,4.6-50.9-.9-2.8-5.5-11.4-5.6-13,0-1.1,1.9-2.4,1.3-4-1.1-1.2-21.8,12.7-25,12.7-1.5,0-6.2-6.5-8.2-8.2-13.8-11.5-33.7-12.4-49.2-3.8-5.5,3.1-5.8,7.1-12.2,3.3-6.5-3.8-12.9-10.2-19.5-14.1-.6-2.4,16-13.8,18.9-15.4C48.9,1.7,66.7-.2,85.5,3V.8h0Z"/>
      <path class="st1" d="M85.5.8v2.2C66.7-.2,48.9,1.7,32.1,11.1c-2.9,1.6-19.5,13-18.9,15.4,6.6,3.9,13,10.3,19.5,14.1,6.5,3.8,6.7-.2,12.2-3.3,15.5-8.6,35.4-7.8,49.2,3.8,2,1.7,6.7,8.2,8.2,8.2,3.2,0,23.9-13.8,25-12.7.5,1.6-1.4,2.8-1.3,4,.1,1.6,4.8,10.2,5.6,13,5.1,16.7,2.7,35.3-4.6,50.9-1,2.1-5.7,8.5-5.6,10.1,0,3.1,7.8,5.6,7.4,7.4-32.7,38.6-95.9,37.5-124.4-5.3l8.8-6.7c-1.9-5.1-5.1-9.4-7-14.5C-1.9,73.7,2,50.7,14.7,31.7v-1c-9.1-3-3.1-7.5,1.4-11.7C34.5,2.1,61.2-4.4,85.5.8ZM62.9,57.7c-14.2,2.6-14.5,26.8.6,28.9,25.5,3.5,23.2-33.3-.6-28.9ZM45.2,108.2l-10.1-8.8-27.1,18c27.9,37.5,84.7,39.6,116.2,5.2.2-1.4-4.7-5.1-6.1-4.7-.5.1-5.6,6.1-7.1,7.3-21,18.2-59.6,21.1-81.3,2.7l13.3-18.7,2.2-1.1h0Z"/>
      <path class="st0" d="M45.2,108.2l-2.2,1.1-13.3,18.7c21.7,18.5,60.3,15.5,81.3-2.7,1.4-1.2,6.6-7.2,7.1-7.3,1.5-.4,6.4,3.2,6.1,4.7-31.5,34.4-88.3,32.3-116.2-5.2l27.2-18,10.1,8.8h0Z"/>
      <path class="st0" d="M62.9,57.7c23.9-4.4,26.1,32.4.6,28.9-15.2-2.1-14.8-26.2-.6-28.9ZM65.9,68.1c-2.8.8-4.9,5.7-1.1,7.6,7.8,3.7,8.3-9.5,1.1-7.6Z"/>
      <path class="st1" d="M65.9,68.1c7.2-1.9,6.7,11.3-1.1,7.6-3.8-1.8-1.8-6.8,1.1-7.6Z"/>
    </g>
  </g>
</svg>